<svg viewBox="0 0 347 55" focusable="false" class="chakra-icon css-15fj3em"><path d="M25.54.38 3.6 12.42a3.53 3.53 0 0 0-1.66 2.8v23.95c0 1.04.75 2.3 1.66 2.8l21.93 12.05c.91.5 2.4.5 3.32 0l21.92-12.05a3.53 3.53 0 0 0 1.66-2.8V15.22c0-1.04-.74-2.3-1.66-2.8L28.86.38A3.52 3.52 0 0 0 27.2 0c-.6 0-1.2.13-1.66.38Z" fill="#2DC5FA"></path><path d="M95.72 26.47h.06-.06Zm-.03 0s.03 0 0 0h-.03.03Zm-.14-.03c.03 0 .03 0 0 0h.03-.03ZM69.62 49.06h8.48V7.4h-8.48v41.66ZM96.2 26.49s0 .03 0 0c0 .03 0 .03 0 0Zm-.1 0h.1-.1Zm-.24-.02h.06-.06Zm-.31-.03V13.92a42.8 42.8 0 0 1 5.32-.35c6.1 0 8.17 1.85 8.17 6.46 0 5.3-3.1 6.63-8.34 6.63-1.65 0-3.27-.02-4.92-.2h-.14.02-.05.03-.03c0-.02-.03-.02-.06-.02 0 0 .03 0 0 0ZM87.13 8.1v40.95h8.42v-15.9c1.48.08 3.39.16 5.1.16l8.53 15.71h9.74l-9.51-16.67c4.9-1.48 8-4.96 8-12.33 0-11.26-7.54-13.09-16.74-13.09-4.98.03-9.93.52-13.54 1.17Zm45.59 20.12c0-8.5.17-14.31 8.08-14.31 7.88 0 8.08 5.8 8.08 14.31 0 8.48-.2 14.28-8.08 14.28s-8.08-5.8-8.08-14.28Zm-8.57 0c0 15.08 3.7 21.26 16.68 21.26 12.95 0 16.65-6.18 16.65-21.26 0-15.08-3.7-21.26-16.65-21.26-12.98 0-16.68 6.18-16.68 21.26Zm41.24-14.94v35.74h7.6V18.38L186.22 44c2.14 4.16 4.1 5.5 7.2 5.5 3.25 0 5.1-1.94 5.1-6.35V7.4h-7.6v30.53l-13.23-25.5c-2.11-4-4.3-5.46-7.18-5.46-3.18 0-5.12 1.88-5.12 6.32Z" data-testid="iron" fill="#fff"></path><path d="M232.8 8.06h-1v17.41H212V8.06h-5.27V48.65H212V30.32h19.8V48.65h5.26V8.06h-4.25Zm104.53 0h-.42l-.3.3-16.13 16.12V8.06H315.2V48.65H320.48V31.22l16.46 17.12.3.31h7.15l-1.66-1.71-18.56-19.22 18.02-17.93 1.74-1.73h-6.6Zm-92.76 39.2-.53 1.37h5.51l.24-.66 4.06-10.8h16.02l4.03 10.8.25.66h5.64l-.52-1.37-13.9-36.75c-.3-.8-.7-1.5-1.26-2.02a3.05 3.05 0 0 0-2.12-.82c-.82 0-1.53.27-2.12.81a5.23 5.23 0 0 0-1.25 2.03l-14.05 36.74Zm63.38.96.92-.18-.11-.93-.3-2.6-.13-1.04-1.02.15c-2.14.3-4.22.57-6.3.57-6 0-9-1.36-10.64-3.74-1.71-2.5-2.13-6.38-2.13-12.08 0-2.81.08-5.21.39-7.25.3-2.02.82-3.62 1.66-4.85 1.6-2.38 4.6-3.75 10.71-3.75 2 0 4.3.3 6.26.6l1.05.16.12-1.05.3-2.69.1-.93-.91-.18a46.09 46.09 0 0 0-8.64-.76c-6.33 0-10.57 1.53-13.14 5.11-2.5 3.5-3.24 8.7-3.24 15.56 0 6.84.74 12.06 3.24 15.56 2.58 3.6 6.83 5.14 13.17 5.14 3.26 0 6.16-.34 8.64-.82Zm-52.3-15.76 6.22-16.57 6.21 16.57h-12.44Z" data-testid="hack" fill="#fff" stroke="#fff" stroke-width="2.03"></path></svg>